<svg id="Layer_1" data-name="Layer 1" xmlns="http://www.w3.org/2000/svg" viewBox="0 0 110.46 48.72"><defs><style>.cls-1{fill:#fff;}.cls-2{fill:#e63946;}</style></defs><path class="cls-1" d="M397.13,75.39l-8.86-27.75c-.66.82-1.25,1.61-1.85,2.43V75.39h-7.71V27h7.71v8.52a28.24,28.24,0,0,1,17.18-8.64l1.13-.15V37.84l-.86.12a20,20,0,0,0-9.1,3.35l10.82,34.08Z" transform="translate(-378.71 -26.68)"/><path class="cls-2" d="M388.67,45.59c-1.15,1.37-2.18,2.66-3.25,4.16V74.39h-5.7V28h5.7V38.07a27.58,27.58,0,0,1,18.31-10.25V37a21.05,21.05,0,0,0-10.14,4l10.64,33.47h-6.37Z" transform="translate(-378.71 -26.68)"/><path class="cls-1" d="M425.89,75.39V53.08h-9.27c-1.4,5.65-1.39,10.76-1.38,19v3.31h-7.71V66.48A86.5,86.5,0,0,1,412.24,38h-4.58V27h25.93V75.39Zm0-33.33V38h-5.11c-.3.8-.69,2-1,3-.12.36-.23.7-.34,1Z" transform="translate(-378.71 -26.68)"/><path class="cls-2" d="M426.89,52.08H415.84c-1.76,6.62-1.6,12.45-1.6,22.31h-5.71V66.48A85.09,85.09,0,0,1,413.66,37h-5V28h23.93V74.39h-5.7Zm-6.78-15c-.53,1.17-1.64,4.87-2.09,6h8.87V37Z" transform="translate(-378.71 -26.68)"/><polygon class="cls-1" points="66.07 48.72 66.07 11.36 56.79 11.36 56.79 0.28 82.73 0.28 82.73 11.36 73.78 11.36 73.78 48.72 66.07 48.72"/><path class="cls-2" d="M451.49,74.39h-5.71V37h-9.27V28h23.93V37h-8.95Z" transform="translate(-378.71 -26.68)"/><path class="cls-1" d="M481.47,75.39V53.08H472.2c-1.4,5.65-1.39,10.77-1.38,19v3.3h-7.71V66.48A86.5,86.5,0,0,1,467.82,38h-4.58V27h25.93V75.39Zm0-33.33V38h-5.1c-.3.8-.7,2-1,3-.12.36-.23.7-.34,1Z" transform="translate(-378.71 -26.68)"/><path class="cls-2" d="M482.47,52.08H471.42c-1.76,6.62-1.6,12.45-1.6,22.31h-5.71V66.48A84.86,84.86,0,0,1,469.25,37h-5V28h23.93V74.39h-5.7Zm-6.78-15c-.53,1.17-1.64,4.87-2.09,6h8.87V37Z" transform="translate(-378.71 -26.68)"/></svg>