<svg id="Layer_1" data-name="Layer 1" xmlns="http://www.w3.org/2000/svg" viewBox="0 0 108.46 46.57"><defs><style>.cls-1{fill:#e63946;}</style></defs><path class="cls-1" d="M388.67,45.59c-1.15,1.37-2.18,2.66-3.25,4.16V74.39h-5.7V28h5.7V38.07a27.58,27.58,0,0,1,18.31-10.25V37a21.05,21.05,0,0,0-10.14,4l10.64,33.47h-6.37Z" transform="translate(-379.72 -27.82)"/><path class="cls-1" d="M426.89,52.08H415.84c-1.76,6.62-1.6,12.45-1.6,22.31h-5.71V66.48A85.09,85.09,0,0,1,413.66,37h-5V28h23.93V74.39h-5.7Zm-6.78-15c-.53,1.17-1.64,4.87-2.09,6h8.87V37Z" transform="translate(-379.72 -27.82)"/><path class="cls-1" d="M451.49,74.39h-5.71V37h-9.27V28h23.93V37h-8.95Z" transform="translate(-379.72 -27.82)"/><path class="cls-1" d="M482.47,52.08H471.42c-1.76,6.62-1.6,12.45-1.6,22.31h-5.71V66.48A84.86,84.86,0,0,1,469.25,37h-5V28h23.93V74.39h-5.7Zm-6.78-15c-.53,1.17-1.64,4.87-2.09,6h8.87V37Z" transform="translate(-379.72 -27.82)"/></svg>