<svg id="Layer_1" data-name="Layer 1" xmlns="http://www.w3.org/2000/svg" viewBox="0 0 209.68 93.9"><defs><style>.cls-1{fill:#fff;}.cls-2{fill:#e63946;}</style></defs><path class="cls-1" d="M364,97.94,347.74,47.06c-.65.85-1.29,1.7-1.92,2.56V97.94H329.1V4.72h16.72V19.16a53.83,53.83,0,0,1,31-14.65L380.21,4V27.28l-2.6.35a36.81,36.81,0,0,0-15.92,5.65l20.55,64.66Z" transform="translate(-329.1 -4.04)"/><path class="cls-2" d="M348.91,40.86c-2.16,2.55-4.08,5-6.09,7.79V94.94H332.1V7.72h10.72v19c9.95-11.82,21.05-17.42,34.39-19.25V24.66a39.28,39.28,0,0,0-19,7.43l20,62.85h-12Z" transform="translate(-329.1 -4.04)"/><path class="cls-1" d="M417.69,97.94V56h-15.4c-2.39,10.15-2.38,19.59-2.35,34.56v7.34H383.22V80.08a164.08,164.08,0,0,1,8.38-52.3h-8.15V4.72h51V97.94Zm0-64.83V27.78H410c-.51,1.42-1.12,3.3-1.65,4.91-.05.14-.09.28-.14.42Z" transform="translate(-329.1 -4.04)"/><path class="cls-2" d="M420.69,53H400c-3.32,12.42-3,23.38-3,41.9H386.22V80.08a159.4,159.4,0,0,1,9.64-55.3h-9.41V7.72h45V94.94H420.69ZM408,24.78c-1,2.19-3.08,9.13-3.93,11.33h16.66V24.78Z" transform="translate(-329.1 -4.04)"/><polygon class="cls-1" points="124.07 93.9 124.07 23.74 106.65 23.74 106.65 0.68 157.6 0.68 157.6 23.74 140.79 23.74 140.79 93.9 124.07 93.9"/><path class="cls-2" d="M466.9,94.94H456.18V24.78H438.75V7.72H483.7V24.78H466.9Z" transform="translate(-329.1 -4.04)"/><path class="cls-1" d="M522.07,97.94V56h-15.4c-2.39,10.15-2.37,19.59-2.35,34.56v7.34H487.6V80.08A164.08,164.08,0,0,1,496,27.78h-8.15V4.72h51V97.94Zm0-64.83V27.78h-7.68c-.51,1.42-1.12,3.3-1.65,4.91l-.14.42Z" transform="translate(-329.1 -4.04)"/><path class="cls-2" d="M525.07,53H504.33c-3.32,12.42-3,23.38-3,41.9H490.6V80.08a159.63,159.63,0,0,1,9.64-55.3h-9.41V7.72h45V94.94H525.07ZM512.35,24.78c-1,2.19-3.09,9.13-3.94,11.33h16.66V24.78Z" transform="translate(-329.1 -4.04)"/></svg>